<svg viewBox="0 0 362.59 94.22" xmlns="http://www.w3.org/2000/svg"><g fill="#525050"><path d="m147.51 72.68a26.54 26.54 0 0 0 19.24-7.59l2.53 4.73a30.62 30.62 0 0 1 -21.66 8.25c-18.47 0-29.58-12-29.58-27.93-.04-15.39 10.56-28.14 27.6-28.14s28 13.19 26.28 31.23h-47.92c1.3 11.86 9.87 19.45 23.51 19.45zm18.91-24.52c-.42-12.42-8.42-20.78-20.67-20.78-12.54 0-21 8.36-21.88 20.78z"/><path d="m208.1 72.68a26.54 26.54 0 0 0 19.24-7.59l2.53 4.73a30.62 30.62 0 0 1 -21.66 8.25c-18.47 0-29.58-12-29.58-27.93 0-15.39 10.56-28.15 27.6-28.15s28 13.19 26.28 31.23h-47.94c1.32 11.87 9.89 19.46 23.53 19.46zm18.9-24.52c-.44-12.42-8.47-20.78-20.67-20.78-12.54 0-21 8.36-21.88 20.78z"/><path d="m299.36 50c0 15.39-11.44 28-28.26 28-9.35 0-17.15-4-21.88-10.56v9.56h-5.82v-77h5.83v32.55c4.77-6.55 12.53-10.55 21.87-10.55 16.83 0 28.26 12.64 28.26 28zm-5.94 0c0-13.08-9.24-22.65-23.09-22.65a23.76 23.76 0 0 0 -21.11 11.77v21.8c4.29 7.26 11.77 11.66 21.11 11.66 13.86-.01 23.09-9.47 23.09-22.58z"/><path d="m362.59 23.09v53.91h-5.83v-9.49c-4.73 6.6-12.53 10.56-21.88 10.56-16.82 0-28.26-12.64-28.26-28s11.44-28 28.26-28c9.35 0 17.15 4 21.88 10.56v-9.54zm-5.83 16.05a23.76 23.76 0 0 0 -21.11-11.77c-13.85 0-23.09 9.57-23.09 22.65s9.24 22.54 23.09 22.54c9.35 0 16.82-4.4 21.11-11.66z"/></g><path d="m94.84 49.47 33.29-34.05h-24.13l-33.13 34.05 34.11 35.39h24.04z" fill="#39b6b8"/><path d="m76.81 37.75v-22.33h-20.81v8.64c-5.24-6.52-12.9-10.49-22.82-10.49-19.29.01-33.18 15.03-33.18 36.57 0 20 12.18 34.62 29.57 36.38a35.52 35.52 0 0 0 3.59.18h.42l.29 7.53 22.52-14.23 6.33-4-6.33-3.3-23.84-12.56.29 7.39a16.64 16.64 0 0 1 -4.08-2c-4.71-3.16-7.36-8.62-7.36-15.42 0-11.05 6.8-18.42 18-18.42a19.74 19.74 0 0 1 17 8.93v27.56l8.2 4.32 6.13 3.23-5.86 3.69-8.47 5.33v.1h20.41v-23.58l-8.76-9.09-2.63-2.73 2.64-2.71z" fill="#525050"/></svg>